<svg width="90" height="90" viewBox="0 0 90 90" fill="none" xmlns="http://www.w3.org/2000/svg">
<ellipse cx="24" cy="69.3333" rx="11" ry="7.33333" fill="white"/>
<ellipse cx="40.335" cy="79.8889" rx="7.335" ry="4.88889" fill="white"/>
<ellipse cx="57.3333" cy="78.8889" rx="7.33333" ry="4.88889" fill="white"/>
<ellipse cx="66.5" cy="63.3333" rx="9.5" ry="6.33333" fill="white"/>
<ellipse cx="49.3333" cy="45.2222" rx="6.33333" ry="4.22222" fill="white"/>
<ellipse cx="61.3333" cy="51.2222" rx="6.33333" ry="4.22222" fill="white"/>
<ellipse cx="36.3333" cy="40.2222" rx="6.33333" ry="4.22222" fill="white"/>
<ellipse cx="28" cy="30.3333" rx="8" ry="5.33333" fill="white"/>
<ellipse cx="30.3333" cy="18.5556" rx="5.33333" ry="3.55556" fill="white"/>
<ellipse cx="42.3333" cy="13.5556" rx="5.33333" ry="3.55556" fill="white"/>
<ellipse cx="55.3333" cy="13.5556" rx="5.33333" ry="3.55556" fill="white"/>
<ellipse cx="66.5" cy="20.3333" rx="6.5" ry="4.33333" fill="white"/>
<path d="M60.1194 60.9701C60.3039 62.0175 60.8957 62.9183 61.8066 63.4638C62.7151 64.0099 63.8681 64.1561 64.9701 63.8806C66.0721 63.6051 67.0208 62.9335 67.5654 62.0241C68.1124 61.1141 68.2107 60.0408 67.8806 59.0299C67.8806 59.0299 67.8806 59.0299 67.8806 59.0299C67.5279 57.8935 67.075 56.7864 66.5268 55.733C62.7646 48.4682 54.8862 44.6077 47.5 45.0544C35.1501 46.024 26.4237 55.8842 23.4522 66.1533C23.2183 67.0924 23.053 68.0444 23 69C23.1854 68.0614 23.4782 67.156 23.8327 66.2767C28.0475 56.6353 37.9437 49.1588 47.5 49.9456C53.0451 50.3791 58.0734 54.1772 59.5981 58.8559C59.8355 59.5447 60.0085 60.2514 60.1194 60.9701Z" fill="url(#paint0_linear_144_998)"/>
<path d="M33.6305 30.0652C33.2591 30.9174 32.5695 31.5679 31.6881 31.861C30.8082 32.155 29.8087 32.0675 28.9348 31.6305C28.0608 31.1935 27.3911 30.4464 27.0983 29.5661C26.804 28.6852 26.9106 27.7431 27.3695 26.9348C27.3695 26.9348 27.3695 26.9348 27.3695 26.9348C28.1102 25.5779 29.109 24.3629 30.2442 23.3876C37.4529 17.9007 45.6227 18.8923 52.4344 21.9156C66.099 29.6924 68.9154 45.0859 70.6941 58.1448C70.8158 59.2583 70.9191 60.3823 71 61.5C70.8033 60.3968 70.5848 59.2916 70.3486 58.2009C67.4512 45.4118 62.1276 30.8136 50.5656 26.0844C45.2532 24.1355 37.9044 24.851 34.7797 28.2508C34.271 28.8052 33.8938 29.4084 33.6305 30.0652Z" fill="url(#paint1_linear_144_998)"/>
<path d="M62.5583 18.5883C62.6754 19.3763 63.1009 20.0694 63.7636 20.5106C64.4249 20.9521 65.2692 21.1055 66.0883 20.9417C66.9075 20.7779 67.6278 20.3115 68.0685 19.6496C68.5105 18.9875 68.6367 18.184 68.4417 17.4116C68.4417 17.4116 68.4417 17.4116 68.4417 17.4116C68.1765 16.3408 67.8644 15.2724 67.491 14.2133C65.7506 8.65903 60.8561 2.64461 54.3775 1.98653C39.1161 0.293859 29.3244 13.8695 25.5573 25.6445C25.2893 26.6344 25.0794 27.6308 25 28.6468C25.1787 27.644 25.4835 26.6843 25.8426 25.7373C30.5799 14.3295 41.9562 3.13538 53.6225 6.01347C58.2376 7.05454 60.9275 11.1148 62.0364 15.8679C62.2532 16.7549 62.4245 17.6649 62.5583 18.5883Z" fill="url(#paint2_linear_144_998)"/>
<defs>
<linearGradient id="paint0_linear_144_998" x1="25.5" y1="62" x2="23" y2="69.5" gradientUnits="userSpaceOnUse">
<stop offset="0.25" stop-color="#30A2FF"/>
<stop offset="1" stop-color="white"/>
</linearGradient>
<linearGradient id="paint1_linear_144_998" x1="68.4367" y1="54.4737" x2="70.9036" y2="62.0333" gradientUnits="userSpaceOnUse">
<stop offset="0.25" stop-color="#30A2FF"/>
<stop offset="1" stop-color="white"/>
</linearGradient>
<linearGradient id="paint2_linear_144_998" x1="27.5" y1="21.6468" x2="25" y2="29.1468" gradientUnits="userSpaceOnUse">
<stop offset="0.25" stop-color="#30A2FF"/>
<stop offset="1" stop-color="white"/>
</linearGradient>
</defs>
</svg>
