<svg width="92" height="91" viewBox="0 0 92 91" fill="none" xmlns="http://www.w3.org/2000/svg">
<circle cx="18.2075" cy="45.5" r="8" fill="white"/>
<circle cx="18.2075" cy="17.5" r="8" fill="white"/>
<circle cx="18.2075" cy="73.5" r="8" fill="white"/>
<circle cx="74.2075" cy="17.5" r="8" fill="white"/>
<circle cx="74.2075" cy="73.5" r="8" fill="white"/>
<circle cx="74.2075" cy="45.5" r="8" fill="white"/>
<circle cx="46.2075" cy="45.5" r="8" fill="white"/>
<line x1="17.7075" y1="45.5" x2="74.7075" y2="45.5" stroke="white" stroke-width="4"/>
<line x1="19.7075" y1="17" x2="76.7075" y2="17" stroke="white" stroke-width="4"/>
<path d="M17.7075 16.5L45.7075 45.5" stroke="white" stroke-width="4"/>
<path d="M74.7075 17.5L46.2075 45.5L74.7075 74" stroke="white" stroke-width="4"/>
<g filter="url(#filter0_d_137_589)">
<path d="M69.17 17.4106C69.784 18.1077 70.6422 18.5203 71.5706 18.5437C72.4981 18.5679 73.4198 18.2009 74.1181 17.5375C74.8165 16.874 75.2302 15.9724 75.2536 15.0449C75.2778 14.1165 74.9097 13.2382 74.245 12.5894C72.5271 10.9979 71.0841 10.1887 69.3555 9.35498C61.2027 5.42937 51.801 7.95038 45.4026 12.371C28.4403 28.251 24.8545 49.6373 18.8381 69.4395C18.4522 70.9375 18.0532 72.5162 17.7075 74C18.1657 72.5472 18.6763 71.0025 19.1735 69.5397C26.2294 50.5383 33.1427 28.3774 48.0124 16.6291C54.0099 13.1596 61.0547 12.1964 66.3653 15.2948C67.4367 15.8823 68.6619 16.8286 69.17 17.4106Z" fill="url(#paint0_linear_137_589)"/>
</g>
<g filter="url(#filter1_d_137_589)">
<path d="M69.5263 44.4594C69.8767 45.32 70.551 45.9901 71.4219 46.3127C72.2916 46.6359 73.2866 46.5851 74.167 46.1812C75.0473 45.7773 75.7348 45.0562 76.0571 44.1862C76.3806 43.3156 76.3124 42.3674 75.8887 41.5406C74.9584 39.8009 74.0755 38.706 73.0024 37.4839C67.6635 31.2992 58.877 28.7836 51.4465 30.0856C31.5879 36.4373 25.7987 55.7033 18.6486 71.1726C18.1404 72.4594 17.6545 73.7315 17.2075 75C17.7626 73.7753 18.3548 72.5515 18.9683 71.315C26.862 56.5771 36.5822 37.9132 51.9685 34.9145C58.3675 34.4255 64.382 36.9469 67.8949 41.7425C68.5587 42.6157 69.258 43.783 69.5263 44.4594Z" fill="url(#paint1_linear_137_589)"/>
</g>
<defs>
<filter id="filter0_d_137_589" x="15.7075" y="7.40714" width="61.5471" height="70.5929" filterUnits="userSpaceOnUse" color-interpolation-filters="sRGB">
<feFlood flood-opacity="0" result="BackgroundImageFix"/>
<feColorMatrix in="SourceAlpha" type="matrix" values="0 0 0 0 0 0 0 0 0 0 0 0 0 0 0 0 0 0 127 0" result="hardAlpha"/>
<feOffset dy="2"/>
<feGaussianBlur stdDeviation="1"/>
<feComposite in2="hardAlpha" operator="out"/>
<feColorMatrix type="matrix" values="0 0 0 0 0 0 0 0 0 0 0 0 0 0 0 0 0 0 0.25 0"/>
<feBlend mode="normal" in2="BackgroundImageFix" result="effect1_dropShadow_137_589"/>
<feBlend mode="normal" in="SourceGraphic" in2="effect1_dropShadow_137_589" result="shape"/>
</filter>
<filter id="filter1_d_137_589" x="15.2075" y="29.7518" width="63.0525" height="49.2482" filterUnits="userSpaceOnUse" color-interpolation-filters="sRGB">
<feFlood flood-opacity="0" result="BackgroundImageFix"/>
<feColorMatrix in="SourceAlpha" type="matrix" values="0 0 0 0 0 0 0 0 0 0 0 0 0 0 0 0 0 0 127 0" result="hardAlpha"/>
<feOffset dy="2"/>
<feGaussianBlur stdDeviation="1"/>
<feComposite in2="hardAlpha" operator="out"/>
<feColorMatrix type="matrix" values="0 0 0 0 0 0 0 0 0 0 0 0 0 0 0 0 0 0 0.25 0"/>
<feBlend mode="normal" in2="BackgroundImageFix" result="effect1_dropShadow_137_589"/>
<feBlend mode="normal" in="SourceGraphic" in2="effect1_dropShadow_137_589" result="shape"/>
</filter>
<linearGradient id="paint0_linear_137_589" x1="73.2075" y1="18" x2="17.2075" y2="17" gradientUnits="userSpaceOnUse">
<stop offset="0.9" stop-color="#30A2FF"/>
<stop offset="1" stop-color="white"/>
</linearGradient>
<linearGradient id="paint1_linear_137_589" x1="72.7075" y1="17" x2="17.7075" y2="17" gradientUnits="userSpaceOnUse">
<stop offset="0.9" stop-color="#30A2FF"/>
<stop offset="1" stop-color="white"/>
</linearGradient>
</defs>
</svg>
