<svg width="92" height="91" viewBox="0 0 92 91" fill="none" xmlns="http://www.w3.org/2000/svg">
<circle cx="17.9148" cy="45.5" r="8" fill="white"/>
<circle cx="17.9148" cy="17.5" r="8" fill="white"/>
<circle cx="17.9148" cy="73.5" r="8" fill="white"/>
<circle cx="73.9148" cy="17.5" r="8" fill="white"/>
<circle cx="73.9148" cy="73.5" r="8" fill="white"/>
<circle cx="73.9148" cy="45.5" r="8" fill="white"/>
<circle cx="45.9148" cy="45.5" r="8" fill="white"/>
<line x1="17.4148" y1="45.5" x2="74.4148" y2="45.5" stroke="white" stroke-width="4"/>
<line x1="19.4148" y1="17" x2="76.4148" y2="17" stroke="white" stroke-width="4"/>
<path d="M17.4148 16.5L45.4148 45.5" stroke="white" stroke-width="4"/>
<path d="M74.4148 17.5L45.9148 45.5L74.4148 74" stroke="white" stroke-width="4"/>
<g filter="url(#filter0_d_137_647)">
<path d="M68.8773 17.4106C69.4913 18.1077 70.3495 18.5203 71.2779 18.5437C72.2054 18.5679 73.127 18.2009 73.8254 17.5375C74.5238 16.874 74.9375 15.9724 74.9608 15.0449C74.9851 14.1165 74.617 13.2382 73.9523 12.5894C72.2344 10.9979 70.7914 10.1887 69.0628 9.35498C60.91 5.42937 51.5083 7.95038 45.1099 12.371C28.1476 28.251 24.5618 49.6373 18.5454 69.4395C18.1595 70.9375 17.7605 72.5162 17.4148 74C17.873 72.5472 18.3836 71.0025 18.8807 69.5397C25.9367 50.5383 32.85 28.3774 47.7197 16.6291C53.7171 13.1596 60.762 12.1964 66.0726 15.2948C67.1439 15.8823 68.3692 16.8286 68.8773 17.4106Z" fill="url(#paint0_linear_137_647)"/>
</g>
<g filter="url(#filter1_d_137_647)">
<path d="M69.2336 44.4594C69.584 45.32 70.2583 45.9901 71.1292 46.3127C71.9988 46.6359 72.9939 46.5851 73.8742 46.1812C74.7546 45.7773 75.4421 45.0562 75.7644 44.1862C76.0879 43.3156 76.0197 42.3674 75.596 41.5406C74.6657 39.8009 73.7828 38.706 72.7097 37.4839C67.3708 31.2992 58.5843 28.7836 51.1538 30.0856C31.2952 36.4373 25.506 55.7033 18.3559 71.1726C17.8477 72.4594 17.3617 73.7315 16.9148 75C17.4699 73.7753 18.0621 72.5515 18.6756 71.315C26.5693 56.5771 36.2895 37.9132 51.6758 34.9145C58.0748 34.4255 64.0893 36.9469 67.6022 41.7425C68.266 42.6157 68.9653 43.783 69.2336 44.4594Z" fill="url(#paint1_linear_137_647)"/>
</g>
<defs>
<filter id="filter0_d_137_647" x="15.4148" y="7.40714" width="61.5471" height="70.5929" filterUnits="userSpaceOnUse" color-interpolation-filters="sRGB">
<feFlood flood-opacity="0" result="BackgroundImageFix"/>
<feColorMatrix in="SourceAlpha" type="matrix" values="0 0 0 0 0 0 0 0 0 0 0 0 0 0 0 0 0 0 127 0" result="hardAlpha"/>
<feOffset dy="2"/>
<feGaussianBlur stdDeviation="1"/>
<feComposite in2="hardAlpha" operator="out"/>
<feColorMatrix type="matrix" values="0 0 0 0 0 0 0 0 0 0 0 0 0 0 0 0 0 0 0.25 0"/>
<feBlend mode="normal" in2="BackgroundImageFix" result="effect1_dropShadow_137_647"/>
<feBlend mode="normal" in="SourceGraphic" in2="effect1_dropShadow_137_647" result="shape"/>
</filter>
<filter id="filter1_d_137_647" x="14.9148" y="29.7518" width="63.0525" height="49.2482" filterUnits="userSpaceOnUse" color-interpolation-filters="sRGB">
<feFlood flood-opacity="0" result="BackgroundImageFix"/>
<feColorMatrix in="SourceAlpha" type="matrix" values="0 0 0 0 0 0 0 0 0 0 0 0 0 0 0 0 0 0 127 0" result="hardAlpha"/>
<feOffset dy="2"/>
<feGaussianBlur stdDeviation="1"/>
<feComposite in2="hardAlpha" operator="out"/>
<feColorMatrix type="matrix" values="0 0 0 0 0 0 0 0 0 0 0 0 0 0 0 0 0 0 0.25 0"/>
<feBlend mode="normal" in2="BackgroundImageFix" result="effect1_dropShadow_137_647"/>
<feBlend mode="normal" in="SourceGraphic" in2="effect1_dropShadow_137_647" result="shape"/>
</filter>
<linearGradient id="paint0_linear_137_647" x1="72.9148" y1="18" x2="16.9148" y2="17" gradientUnits="userSpaceOnUse">
<stop offset="0.9" stop-color="#FDB515"/>
<stop offset="1" stop-color="white"/>
</linearGradient>
<linearGradient id="paint1_linear_137_647" x1="72.4148" y1="17" x2="17.4148" y2="17" gradientUnits="userSpaceOnUse">
<stop offset="0.9" stop-color="#FDB515"/>
<stop offset="1" stop-color="white"/>
</linearGradient>
</defs>
</svg>
