<svg width="486" height="91" viewBox="0 0 486 91" fill="none" xmlns="http://www.w3.org/2000/svg">
<ellipse cx="24" cy="70.0407" rx="11" ry="7.33333" fill="#0F161F"/>
<ellipse cx="40.335" cy="80.5962" rx="7.335" ry="4.88889" fill="#0F161F"/>
<ellipse cx="57.3333" cy="79.5962" rx="7.33333" ry="4.88889" fill="#0F161F"/>
<ellipse cx="66.5" cy="64.0407" rx="9.5" ry="6.33333" fill="#0F161F"/>
<ellipse cx="49.3333" cy="45.9296" rx="6.33333" ry="4.22222" fill="#0F161F"/>
<ellipse cx="61.3333" cy="51.9296" rx="6.33333" ry="4.22222" fill="#0F161F"/>
<ellipse cx="36.3333" cy="40.9296" rx="6.33333" ry="4.22222" fill="#0F161F"/>
<ellipse cx="28" cy="31.0407" rx="8" ry="5.33333" fill="#0F161F"/>
<ellipse cx="30.3333" cy="19.2629" rx="5.33333" ry="3.55556" fill="#0F161F"/>
<ellipse cx="42.3333" cy="14.2629" rx="5.33333" ry="3.55556" fill="#0F161F"/>
<ellipse cx="55.3333" cy="14.2629" rx="5.33333" ry="3.55556" fill="#0F161F"/>
<ellipse cx="66.5" cy="21.0407" rx="6.5" ry="4.33333" fill="#0F161F"/>
<path d="M60.1194 61.6775C60.3039 62.7249 60.8957 63.6256 61.8066 64.1711C62.7151 64.7173 63.8681 64.8634 64.9701 64.5879C66.0721 64.3124 67.0208 63.6408 67.5654 62.7315C68.1124 61.8215 68.2107 60.7482 67.8806 59.7372C67.8806 59.7372 67.8806 59.7372 67.8806 59.7372C67.5279 58.6008 67.075 57.4937 66.5268 56.4403C62.7646 49.1755 54.8862 45.3151 47.5 45.7617C35.1501 46.7313 26.4237 56.5915 23.4522 66.8606C23.2183 67.7998 23.053 68.7517 23 69.7073C23.1854 68.7687 23.4782 67.8633 23.8327 66.984C28.0475 57.3426 37.9437 49.8662 47.5 50.6529C53.0451 51.0864 58.0734 54.8845 59.5981 59.5633C59.8355 60.2521 60.0085 60.9587 60.1194 61.6775Z" fill="url(#paint0_linear_129_1015)"/>
<path d="M33.6305 30.7726C33.2591 31.6247 32.5695 32.2752 31.6881 32.5684C30.8082 32.8623 29.8087 32.7748 28.9348 32.3378C28.0608 31.9008 27.3911 31.1537 27.0983 30.2735C26.804 29.3925 26.9106 28.4505 27.3695 27.6421C27.3695 27.6421 27.3695 27.6421 27.3695 27.6421C28.1102 26.2853 29.109 25.0702 30.2442 24.0949C37.4529 18.6081 45.6227 19.5997 52.4344 22.6229C66.099 30.3998 68.9154 45.7932 70.6941 58.8521C70.8158 59.9656 70.9191 61.0896 71 62.2074C70.8033 61.1041 70.5848 59.999 70.3486 58.9082C67.4512 46.1192 62.1276 31.5209 50.5656 26.7918C45.2532 24.8428 37.9044 25.5583 34.7797 28.9582C34.271 29.5126 33.8938 30.1158 33.6305 30.7726Z" fill="url(#paint1_linear_129_1015)"/>
<path d="M62.5583 19.2957C62.6754 20.0837 63.1009 20.7767 63.7636 21.218C64.4249 21.6594 65.2692 21.8129 66.0883 21.6491C66.9075 21.4853 67.6278 21.0189 68.0685 20.357C68.5105 19.6948 68.6367 18.8914 68.4417 18.119C68.4417 18.119 68.4417 18.119 68.4417 18.119C68.1765 17.0481 67.8644 15.9797 67.491 14.9207C65.7506 9.36638 60.8561 3.35196 54.3775 2.69388C39.1161 1.00121 29.3244 14.5769 25.5573 26.3518C25.2893 27.3417 25.0794 28.3381 25 29.3542C25.1787 28.3514 25.4835 27.3917 25.8426 26.4447C30.5799 15.0369 41.9562 3.84273 53.6225 6.72082C58.2376 7.76189 60.9275 11.8221 62.0364 16.5752C62.2532 17.4622 62.4245 18.3723 62.5583 19.2957Z" fill="url(#paint2_linear_129_1015)"/>
<path d="M111.906 50.2386H100.062V44.0198H111.906C113.969 44.0198 115.635 43.6865 116.906 43.0198C118.177 42.3532 119.104 41.4365 119.688 40.2698C120.292 39.0823 120.594 37.7282 120.594 36.2073C120.594 34.7698 120.292 33.4261 119.688 32.1761C119.104 30.9053 118.177 29.8844 116.906 29.1136C115.635 28.3428 113.969 27.9573 111.906 27.9573H102.469V67.2073H94.625V21.7073H111.906C115.427 21.7073 118.417 22.3323 120.875 23.5823C123.354 24.8115 125.24 26.5198 126.531 28.7073C127.823 30.874 128.469 33.3532 128.469 36.1448C128.469 39.0823 127.823 41.6032 126.531 43.7073C125.24 45.8115 123.354 47.4261 120.875 48.5511C118.417 49.6761 115.427 50.2386 111.906 50.2386ZM165.281 60.9886V67.2073H141.125V60.9886H165.281ZM143.344 21.7073V67.2073H135.5V21.7073H143.344ZM162.125 40.7073V46.8323H141.125V40.7073H162.125ZM165.125 21.7073V27.9573H141.125V21.7073H165.125ZM198.562 52.3948H206.375C206.125 55.374 205.292 58.0303 203.875 60.3636C202.458 62.6761 200.469 64.499 197.906 65.8323C195.344 67.1657 192.229 67.8323 188.562 67.8323C185.75 67.8323 183.219 67.3323 180.969 66.3323C178.719 65.3115 176.792 63.874 175.188 62.0198C173.583 60.1448 172.354 57.8844 171.5 55.2386C170.667 52.5928 170.25 49.6344 170.25 46.3636V42.5823C170.25 39.3115 170.677 36.3532 171.531 33.7073C172.406 31.0615 173.656 28.8011 175.281 26.9261C176.906 25.0303 178.854 23.5823 181.125 22.5823C183.417 21.5823 185.99 21.0823 188.844 21.0823C192.469 21.0823 195.531 21.749 198.031 23.0823C200.531 24.4157 202.469 26.2594 203.844 28.6136C205.24 30.9678 206.094 33.6657 206.406 36.7073H198.594C198.385 34.749 197.927 33.0719 197.219 31.6761C196.531 30.2803 195.51 29.2178 194.156 28.4886C192.802 27.7386 191.031 27.3636 188.844 27.3636C187.052 27.3636 185.49 27.6969 184.156 28.3636C182.823 29.0303 181.708 30.0094 180.812 31.3011C179.917 32.5928 179.24 34.1865 178.781 36.0823C178.344 37.9573 178.125 40.1032 178.125 42.5198V46.3636C178.125 48.6553 178.323 50.7386 178.719 52.6136C179.135 54.4678 179.76 56.0615 180.594 57.3948C181.448 58.7282 182.531 59.7594 183.844 60.4886C185.156 61.2178 186.729 61.5823 188.562 61.5823C190.792 61.5823 192.594 61.2282 193.969 60.5198C195.365 59.8115 196.417 58.7803 197.125 57.4261C197.854 56.0511 198.333 54.374 198.562 52.3948ZM239.031 21.7073H246.844V52.1136C246.844 55.5719 246.094 58.4678 244.594 60.8011C243.094 63.1344 241.052 64.8948 238.469 66.0823C235.906 67.249 233.042 67.8323 229.875 67.8323C226.604 67.8323 223.688 67.249 221.125 66.0823C218.562 64.8948 216.542 63.1344 215.062 60.8011C213.604 58.4678 212.875 55.5719 212.875 52.1136V21.7073H220.688V52.1136C220.688 54.3011 221.062 56.1032 221.812 57.5198C222.562 58.9157 223.625 59.9469 225 60.6136C226.375 61.2803 228 61.6136 229.875 61.6136C231.75 61.6136 233.365 61.2803 234.719 60.6136C236.094 59.9469 237.156 58.9157 237.906 57.5198C238.656 56.1032 239.031 54.3011 239.031 52.1136V21.7073ZM283.875 60.9886V67.2073H261.031V60.9886H283.875ZM263.219 21.7073V67.2073H255.375V21.7073H263.219ZM308.281 27.7698L294.688 67.2073H286.469L303.594 21.7073H308.844L308.281 27.7698ZM319.656 67.2073L306.031 27.7698L305.438 21.7073H310.719L327.906 67.2073H319.656ZM319 50.3323V56.5511H294.25V50.3323H319ZM347.781 21.7073V67.2073H340V21.7073H347.781ZM362.062 21.7073V27.9573H325.844V21.7073H362.062ZM403.469 43.2073V45.7073C403.469 49.1448 403.021 52.2282 402.125 54.9573C401.229 57.6865 399.948 60.0094 398.281 61.9261C396.635 63.8428 394.656 65.3115 392.344 66.3323C390.031 67.3323 387.469 67.8323 384.656 67.8323C381.865 67.8323 379.312 67.3323 377 66.3323C374.708 65.3115 372.719 63.8428 371.031 61.9261C369.344 60.0094 368.031 57.6865 367.094 54.9573C366.177 52.2282 365.719 49.1448 365.719 45.7073V43.2073C365.719 39.7698 366.177 36.6969 367.094 33.9886C368.01 31.2594 369.302 28.9365 370.969 27.0198C372.656 25.0823 374.646 23.6136 376.938 22.6136C379.25 21.5928 381.802 21.0823 384.594 21.0823C387.406 21.0823 389.969 21.5928 392.281 22.6136C394.594 23.6136 396.583 25.0823 398.25 27.0198C399.917 28.9365 401.198 31.2594 402.094 33.9886C403.01 36.6969 403.469 39.7698 403.469 43.2073ZM395.625 45.7073V43.1448C395.625 40.6032 395.375 38.3636 394.875 36.4261C394.396 34.4678 393.677 32.8323 392.719 31.5198C391.781 30.1865 390.625 29.1865 389.25 28.5198C387.875 27.8323 386.323 27.4886 384.594 27.4886C382.865 27.4886 381.323 27.8323 379.969 28.5198C378.615 29.1865 377.458 30.1865 376.5 31.5198C375.562 32.8323 374.844 34.4678 374.344 36.4261C373.844 38.3636 373.594 40.6032 373.594 43.1448V45.7073C373.594 48.249 373.844 50.499 374.344 52.4573C374.844 54.4157 375.573 56.0719 376.531 57.4261C377.51 58.7594 378.677 59.7698 380.031 60.4573C381.385 61.124 382.927 61.4573 384.656 61.4573C386.406 61.4573 387.958 61.124 389.312 60.4573C390.667 59.7698 391.812 58.7594 392.75 57.4261C393.688 56.0719 394.396 54.4157 394.875 52.4573C395.375 50.499 395.625 48.249 395.625 45.7073ZM411.312 21.7073H427.406C430.865 21.7073 433.812 22.2282 436.25 23.2698C438.688 24.3115 440.552 25.8532 441.844 27.8948C443.156 29.9157 443.812 32.4157 443.812 35.3948C443.812 37.6657 443.396 39.6657 442.562 41.3948C441.729 43.124 440.552 44.5823 439.031 45.7698C437.51 46.9365 435.698 47.8428 433.594 48.4886L431.219 49.6448H416.75L416.688 43.4261H427.531C429.406 43.4261 430.969 43.0928 432.219 42.4261C433.469 41.7594 434.406 40.8532 435.031 39.7073C435.677 38.5407 436 37.2282 436 35.7698C436 34.1865 435.688 32.8115 435.062 31.6448C434.458 30.4573 433.521 29.5511 432.25 28.9261C430.979 28.2803 429.365 27.9573 427.406 27.9573H419.156V67.2073H411.312V21.7073ZM437.281 67.2073L426.594 46.7698L434.812 46.7386L445.656 66.8011V67.2073H437.281ZM475.562 55.4886C475.562 54.5511 475.417 53.7178 475.125 52.9886C474.854 52.2594 474.365 51.5928 473.656 50.9886C472.948 50.3844 471.948 49.8011 470.656 49.2386C469.385 48.6553 467.76 48.0615 465.781 47.4573C463.615 46.7907 461.615 46.0511 459.781 45.2386C457.969 44.4053 456.385 43.4469 455.031 42.3636C453.677 41.2594 452.625 39.999 451.875 38.5823C451.125 37.1448 450.75 35.4886 450.75 33.6136C450.75 31.7594 451.135 30.0719 451.906 28.5511C452.698 27.0303 453.812 25.7178 455.25 24.6136C456.708 23.4886 458.427 22.624 460.406 22.0198C462.385 21.3948 464.573 21.0823 466.969 21.0823C470.344 21.0823 473.25 21.7073 475.688 22.9573C478.146 24.2073 480.031 25.8844 481.344 27.9886C482.677 30.0928 483.344 32.4157 483.344 34.9573H475.562C475.562 33.4573 475.24 32.1344 474.594 30.9886C473.969 29.8219 473.01 28.9053 471.719 28.2386C470.448 27.5719 468.833 27.2386 466.875 27.2386C465.021 27.2386 463.479 27.5198 462.25 28.0823C461.021 28.6448 460.104 29.4053 459.5 30.3636C458.896 31.3219 458.594 32.4053 458.594 33.6136C458.594 34.4678 458.792 35.249 459.188 35.9573C459.583 36.6448 460.188 37.2907 461 37.8948C461.812 38.4782 462.833 39.0303 464.062 39.5511C465.292 40.0719 466.74 40.5719 468.406 41.0511C470.927 41.8011 473.125 42.6344 475 43.5511C476.875 44.4469 478.438 45.4678 479.688 46.6136C480.938 47.7594 481.875 49.0615 482.5 50.5198C483.125 51.9573 483.438 53.5928 483.438 55.4261C483.438 57.3428 483.052 59.0719 482.281 60.6136C481.51 62.1344 480.406 63.4365 478.969 64.5198C477.552 65.5823 475.844 66.4053 473.844 66.9886C471.865 67.5511 469.656 67.8323 467.219 67.8323C465.031 67.8323 462.875 67.5407 460.75 66.9573C458.646 66.374 456.729 65.4886 455 64.3011C453.271 63.0928 451.896 61.5928 450.875 59.8011C449.854 57.9886 449.344 55.874 449.344 53.4573H457.188C457.188 54.9365 457.438 56.1969 457.938 57.2386C458.458 58.2803 459.177 59.1344 460.094 59.8011C461.01 60.4469 462.073 60.9261 463.281 61.2386C464.51 61.5511 465.823 61.7073 467.219 61.7073C469.052 61.7073 470.583 61.4469 471.812 60.9261C473.062 60.4053 474 59.6761 474.625 58.7386C475.25 57.8011 475.562 56.7178 475.562 55.4886Z" fill="black"/>
<defs>
<linearGradient id="paint0_linear_129_1015" x1="25.5" y1="62.7073" x2="23" y2="70.2073" gradientUnits="userSpaceOnUse">
<stop stop-color="#30A2FF"/>
<stop offset="1" stop-color="#0F161F"/>
</linearGradient>
<linearGradient id="paint1_linear_129_1015" x1="68.5" y1="55.2073" x2="71" y2="62.7073" gradientUnits="userSpaceOnUse">
<stop stop-color="#30A2FF"/>
<stop offset="1" stop-color="#0F161F"/>
</linearGradient>
<linearGradient id="paint2_linear_129_1015" x1="27.5" y1="22.3541" x2="25" y2="29.8541" gradientUnits="userSpaceOnUse">
<stop stop-color="#30A2FF"/>
<stop offset="1" stop-color="#0F161F"/>
</linearGradient>
</defs>
</svg>
